<?xml version="1.0" encoding="utf-8"?>
<!-- Generator: Adobe Illustrator 19.1.0, SVG Export Plug-In . SVG Version: 6.00 Build 0)  -->
<!DOCTYPE svg PUBLIC "-//W3C//DTD SVG 1.1//EN" "http://www.w3.org/Graphics/SVG/1.1/DTD/svg11.dtd">
<svg version="1.1" id="レイヤー_1" xmlns="http://www.w3.org/2000/svg" xmlns:xlink="http://www.w3.org/1999/xlink" x="0px"
	 y="0px" width="19px" height="19px" viewBox="-411 288.3 19 19" style="enable-background:new -411 288.3 19 19;"
	 xml:space="preserve">
<g id="menu_copy_3_1_">
	<path style="fill:#A5B7DA;" d="M-411,302.9c0,3.2,2.9,4.4,7.3,4.4h4.4c4.4,0,7.3-1.2,7.3-4.4H-411z"/>
	<path style="fill:#A5B7DA;" d="M-392,297c0-0.7-0.6-1.5-1.5-1.5h-16c-0.7,0-1.5,0.7-1.5,1.5v1.5c0,0.7,0.7,1.5,1.5,1.5h16.1
		c0.9,0,1.5-0.6,1.5-1.5L-392,297L-392,297z"/>
	<path style="fill:#A5B7DA;" d="M-392,292.7c0-3.2-2.9-4.4-7.3-4.4h-4.4c-4.4,0-7.3,1.2-7.3,4.4H-392z"/>
</g>
</svg>
